<svg xmlns="http://www.w3.org/2000/svg" viewBox="0 0 386.19 97.1"><defs><style>.cls-1{fill:#fff;}</style></defs><title>logo_white</title><g id="Lager_2" data-name="Lager 2"><g id="Lager_1-2" data-name="Lager 1"><rect class="cls-1" x="16.57" width="28.37" height="28.37"/><rect class="cls-1" y="34.42" width="19.12" height="19.12"/><rect class="cls-1" x="16.57" y="59.61" width="11.16" height="11.16"/><path class="cls-1" d="M51.45,39.35H38v43H51.45c14.89,0,24.9-8.63,24.9-21.48S66.34,39.35,51.45,39.35Zm0,37.16h-7V45.21h7C62.72,45.21,70,51.37,70,60.89S62.72,76.51,51.45,76.51Z"/><rect class="cls-1" x="78.49" y="51.13" width="5.99" height="31.25"/><path class="cls-1" d="M81.48,39.58a3.63,3.63,0,0,0-3.82,3.76,3.82,3.82,0,1,0,7.63,0A3.66,3.66,0,0,0,81.48,39.58Z"/><path class="cls-1" d="M113.11,54.67a14.55,14.55,0,0,0-11-4.6c-9.35,0-16.13,7-16.13,16.71,0,9.51,6.78,16.42,16.13,16.42a14.58,14.58,0,0,0,11-4.61v2.56c0,6.3-4,10.37-10.2,10.37a10,10,0,0,1-10-7.58l-.14-.69L87,84l.12.76c1.12,7.12,7.82,12.3,15.94,12.3,9.57,0,16-6.41,16-15.95v-30h-6Zm.12,12.11c0,6.28-4.46,10.85-10.61,10.85S92,73.06,92,66.78c0-6.49,4.46-11.2,10.61-11.2S113.23,60.29,113.23,66.78Z"/><rect class="cls-1" x="122.29" y="51.13" width="5.99" height="31.25"/><path class="cls-1" d="M125.29,39.58a3.63,3.63,0,0,0-3.82,3.76,3.82,3.82,0,1,0,7.63,0A3.66,3.66,0,0,0,125.29,39.58Z"/><path class="cls-1" d="M143.85,78.21c-2.38,0-3.85-1.63-3.85-4.13V56.34h7.71V51.13H140v-7h-5.1l-.64,7h-5.14v5.21H134V74.26c0,5.64,3.42,9.29,8.71,9.29a18.8,18.8,0,0,0,4.93-.74l.53-.16v-5.3l-1,.31A12.8,12.8,0,0,1,143.85,78.21Z"/><path class="cls-1" d="M174.64,54.91a14.61,14.61,0,0,0-11.2-5c-9.3,0-16.06,7.08-16.06,16.83s6.76,16.77,16.06,16.77a14.69,14.69,0,0,0,11.2-4.92v3.74h6V51.13h-6Zm0,11.87c0,6.49-4.47,11.2-10.62,11.2s-10.61-4.71-10.61-11.2,4.47-11.2,10.61-11.2S174.59,60.29,174.59,66.78Z"/><rect class="cls-1" x="183.06" y="37.58" width="6.04" height="44.79"/><path class="cls-1" d="M207.71,82.81l.53-.16v-5.3l-1,.31a12.8,12.8,0,0,1-3.35.55c-2.37,0-3.85-1.63-3.85-4.13V56.34h7.71V51.13h-7.71v-7H195l-.64,7h-5.13v5.21h4.88V74.26c0,5.64,3.42,9.29,8.71,9.29A18.8,18.8,0,0,0,207.71,82.81Z"/><path class="cls-1" d="M209.62,86c0,2.4-1.46,3.95-3.72,3.95a11.31,11.31,0,0,1-3.57-.54l-1-.37v5.56l.51.18a17.49,17.49,0,0,0,5.26.8c5.1,0,8.52-3.66,8.52-9.11V51.13h-6Z"/><path class="cls-1" d="M212.61,39.58a3.63,3.63,0,0,0-3.82,3.76,3.82,3.82,0,1,0,3.82-3.76Z"/><path class="cls-1" d="M240.17,48.1a3.76,3.76,0,1,0,0-7.52,3.76,3.76,0,1,0,0,7.52Z"/><path class="cls-1" d="M226.15,48.1a3.76,3.76,0,1,0-3.87-3.76A3.66,3.66,0,0,0,226.15,48.1Z"/><path class="cls-1" d="M244.36,54.91a14.62,14.62,0,0,0-11.2-5C223.85,50,217.1,57,217.1,66.78s6.75,16.77,16.06,16.77a14.72,14.72,0,0,0,11.2-4.92v3.74h6V51.13h-6Zm-.06,11.87c0,6.49-4.46,11.2-10.61,11.2s-10.61-4.71-10.61-11.2,4.46-11.2,10.61-11.2S244.3,60.29,244.3,66.78Z"/><path class="cls-1" d="M268.26,50a13.26,13.26,0,0,0-9.44,3.93V51.13h-6V82.37h6V64.25a8.73,8.73,0,0,1,9-8.67c4.62,0,7.49,3.16,7.49,8.25V82.37h6V63.83C281.26,55.53,276,50,268.26,50Z"/><path class="cls-1" d="M320.5,78.21c-2.37,0-3.85-1.63-3.85-4.13V56.34h7.71V51.13h-7.71v-7h-5.09l-.65,7h-5.13v3.25C303.39,51.64,299.43,50,294.7,50c-6.91,0-12.12,4.22-12.12,9.82-.07,7.48,6.08,8.44,12.6,9.46,2.72.4,7.78,1.14,7.83,4.26,0,2.56-3.09,4.49-7.19,4.49-4.69,0-8-2.6-8-6.31v-.76h-5.92v.76c0,6.88,5.86,11.88,13.94,11.88,7.54,0,13-4.4,13-10.48-.07-7.25-7.64-8.56-13.18-9.51s-7.26-1.76-7.26-3.67c0-2.42,2.72-4.31,6.2-4.31,4.39,0,7.61,2.16,7.66,5.15l0,.73,5.92.08v-.77a9.71,9.71,0,0,0-1.1-4.43h3.53V74.26c0,5.64,3.42,9.29,8.71,9.29a18.8,18.8,0,0,0,4.93-.74l.53-.16v-5.3l-1,.31A12.8,12.8,0,0,1,320.5,78.21Z"/><path class="cls-1" d="M340.57,50C331,50,324,56.88,324,66.43c0,9.92,7,17.12,16.6,17.12,6.92,0,13.34-4.46,15.26-10.6l.26-.83-5.9-.94-.21.59c-1.25,3.6-5.29,6.21-9.59,6.21-5.24,0-9.25-3.59-10.2-9L356.8,69l.06-.69a17.16,17.16,0,0,0,.07-1.84C356.93,56.9,350.05,50,340.57,50Zm-.18,5.63a10.08,10.08,0,0,1,10.17,8l-20.16-.06A10,10,0,0,1,340.39,55.58Z"/><path class="cls-1" d="M373.19,50a13.22,13.22,0,0,0-9.43,3.93V51.13h-6V82.37h6V64.25a8.72,8.72,0,0,1,9-8.67c4.62,0,7.49,3.16,7.49,8.25V82.37h6V63.83C386.19,55.53,381,50,373.19,50Z"/></g></g></svg>